<svg width="50" height="50" viewBox="0 0 50 50" fill="none" xmlns="http://www.w3.org/2000/svg">
<g clip-path="url(#clip0_760_3188)">
<path fill-rule="evenodd" clip-rule="evenodd" d="M24.95 7.69385C27.1439 7.69385 28.9389 9.05119 29.6369 10.8933C31.3322 9.72986 33.6259 9.72986 35.4209 10.9902C37.2159 12.2506 37.8142 14.3836 37.3156 16.3227C39.4098 16.4196 41.3045 17.68 41.9029 19.716C42.6009 21.752 41.8031 23.885 40.2076 25.0484C41.8031 26.3088 42.6009 28.4418 41.9029 30.3808C41.2048 32.4168 39.3101 33.6772 37.3156 33.7742C37.9139 35.7132 37.2159 37.8462 35.4209 39.1066C33.6259 40.367 31.3322 40.27 29.6369 39.2035C28.9389 41.0457 27.0441 42.403 24.95 42.403C22.7561 42.403 20.961 41.0457 20.263 39.2035C18.5677 40.367 16.2741 40.367 14.479 39.1066C12.7838 37.7493 12.0857 35.6163 12.684 33.6772C10.5899 33.5803 8.69512 32.3199 8.09678 30.2839C7.39872 28.2479 8.1965 26.1149 9.79207 24.9515C8.1965 23.6911 7.39872 21.5581 8.09678 19.6191C8.79484 17.583 10.6896 16.3227 12.684 16.2257C12.0857 14.2866 12.7838 12.1537 14.5788 10.8933C16.3738 9.63291 18.6674 9.72986 20.3627 10.7963C20.961 9.05119 22.8558 7.69385 24.95 7.69385Z" fill="#D9D9D9"/>
</g>
<defs>
<clipPath id="clip0_760_3188">
<rect width="50" height="50" fill="white"/>
</clipPath>
</defs>
</svg>
