<svg width="23" height="22" viewBox="0 0 23 22" fill="none" xmlns="http://www.w3.org/2000/svg">
<g clip-path="url(#clip0_796_3030)">
<path d="M16.4399 4.41089C17.9309 4.41089 19.1509 5.63091 19.1509 7.12183V13.6638C19.1509 15.1495 17.9365 16.3687 16.4458 16.3689H12.6851L12.0444 17.4753L11.4146 18.5671C11.2967 18.7669 11.0097 18.7668 10.897 18.5671L10.2661 17.4753L9.62646 16.3689H5.90674C4.42094 16.3689 3.20166 15.1547 3.20166 13.6638V7.11597C3.2018 5.63029 4.41591 4.41089 5.90674 4.41089H16.4399ZM15.1187 9.21265C14.3655 9.21265 13.7554 9.84234 13.7554 10.616C13.7554 11.3896 14.3655 12.0203 15.1187 12.0203C15.4311 12.0202 15.7185 11.9124 15.9438 11.7332V12.1218C15.9438 12.1218 15.8614 12.5066 15.2876 12.5066V13.2292C15.294 13.23 15.9101 13.2978 16.4604 12.7478C16.4604 12.7478 16.7166 12.4756 16.7729 12.1169V9.26831H15.9438V9.49878C15.7133 9.31949 15.426 9.21268 15.1187 9.21265ZM5.57861 12.0505H6.39795V11.7888C6.62849 11.9937 6.9209 12.1218 7.24365 12.1218C7.9763 12.1218 8.5708 11.4711 8.5708 10.6667C8.57059 9.86256 7.9813 9.20679 7.24365 9.20679C6.92602 9.2068 6.62849 9.32974 6.39795 9.53979V8.33569H5.57861V12.0505ZM11.9116 9.20679C11.0971 9.20682 10.4361 9.85755 10.436 10.6619C10.436 11.4662 11.097 12.1169 11.9116 12.1169C12.7262 12.1169 13.3872 11.4662 13.3872 10.6619C13.3872 9.85753 12.7313 9.20679 11.9116 9.20679ZM8.6626 8.2644V9.00757C8.6626 9.00757 9.04204 9.0586 9.11377 9.42749V12.0505H9.95947V9.40698C9.90824 9.0381 9.68701 8.76147 9.68701 8.76147C9.20545 8.19301 8.6626 8.2644 8.6626 8.2644ZM7.07959 9.93433C7.4894 9.93433 7.81777 10.2572 7.81787 10.6619C7.81787 11.0666 7.48946 11.3894 7.07959 11.3894C6.77743 11.3893 6.51654 11.2101 6.40381 10.949C6.36794 10.8619 6.34229 10.7643 6.34229 10.6619C6.34231 10.5595 6.36285 10.4618 6.40381 10.3748C6.51661 10.1137 6.77755 9.93439 7.07959 9.93433ZM11.9116 9.96558C12.301 9.96558 12.6186 10.2777 12.6187 10.6619C12.6187 11.0461 12.3061 11.3591 11.9116 11.3591C11.5223 11.3591 11.2046 11.0461 11.2046 10.6619C11.2046 10.2777 11.5223 9.96561 11.9116 9.96558ZM15.272 9.89331C15.5639 9.89331 15.8208 10.0571 15.9438 10.2927C15.9951 10.3901 16.02 10.4984 16.02 10.6111C16.02 10.7236 15.9899 10.8363 15.9438 10.9285C15.8209 11.1693 15.564 11.3279 15.272 11.3279C14.8572 11.3278 14.5241 11.0054 14.5239 10.6111C14.5239 10.2167 14.8622 9.89344 15.272 9.89331Z" fill="white"/>
<path fill-rule="evenodd" clip-rule="evenodd" d="M18.8798 1.10973H3.53819C2.31241 1.10973 1.31872 2.10342 1.31872 3.3292V18.6708C1.31872 19.8966 2.31241 20.8903 3.53818 20.8903H18.8798C20.1056 20.8903 21.0993 19.8966 21.0993 18.6708V3.3292C21.0993 2.10342 20.1056 1.10973 18.8798 1.10973ZM3.53819 0H18.8798C20.7185 0 22.209 1.49054 22.209 3.3292V18.6708C22.209 20.5095 20.7185 22 18.8798 22H3.53818C1.69952 22 0.208984 20.5095 0.208984 18.6708V3.3292C0.208984 1.49053 1.69952 0 3.53819 0Z" fill="white"/>
</g>
<defs>
<clipPath id="clip0_796_3030">
<rect width="22" height="22" fill="white" transform="translate(0.208984)"/>
</clipPath>
</defs>
</svg>
