<svg width="19" height="19" viewBox="0 0 19 19" fill="none" xmlns="http://www.w3.org/2000/svg">
<g clip-path="url(#clip0_767_7378)">
<path d="M13.916 3.68872C15.1626 3.68891 16.1816 4.70869 16.1816 5.95532V11.426C16.1816 12.6685 15.1667 13.6887 13.9199 13.6887H10.7754L10.2393 14.6135L9.71289 15.5266C9.61438 15.6936 9.37461 15.6934 9.28027 15.5266L8.75293 14.6135L8.21777 13.6887H5.10742C3.86496 13.6887 2.84473 12.6728 2.84473 11.426V5.95142C2.84473 4.70896 3.86068 3.68872 5.10742 3.68872H13.916ZM12.8105 7.70337C12.1808 7.70337 11.671 8.23035 11.6709 8.8772C11.6709 9.52413 12.1807 10.051 12.8105 10.051C13.0717 10.051 13.3116 9.96156 13.5 9.81177V10.137C13.5 10.137 13.431 10.4583 12.9512 10.4583V11.0627C12.9512 11.0627 13.4699 11.1221 13.9326 10.6594C13.9367 10.6551 14.1476 10.4299 14.1943 10.1331V7.75024H13.5V7.9436C13.3073 7.79371 13.0675 7.70343 12.8105 7.70337ZM4.83301 10.0774H5.51855V9.85864C5.71131 10.0299 5.95578 10.137 6.22559 10.137C6.83807 10.1367 7.33496 9.59267 7.33496 8.92017C7.33495 8.24767 6.84235 7.69969 6.22559 7.69946C5.95999 7.69946 5.71134 7.80216 5.51855 7.97778V6.97095H4.83301V10.0774ZM10.1289 7.69946C9.4477 7.69946 8.89453 8.24362 8.89453 8.91626C8.89474 9.58873 9.44782 10.1331 10.1289 10.1331C10.8098 10.1329 11.3621 9.58861 11.3623 8.91626C11.3623 8.24374 10.8142 7.69966 10.1289 7.69946ZM7.41211 6.91138V7.53247C7.42226 7.53392 7.72988 7.58005 7.78906 7.88306V10.0774H8.49609V7.86646C8.45325 7.55798 8.26855 7.32642 8.26855 7.32642C7.87034 6.85633 7.42204 6.91013 7.41211 6.91138ZM6.08789 8.30786C6.43064 8.30786 6.70508 8.5778 6.70508 8.91626C6.70489 9.25456 6.43052 9.52466 6.08789 9.52466C5.83521 9.52457 5.61669 9.37396 5.52246 9.15552C5.49258 9.08286 5.47076 9.0017 5.4707 8.91626C5.4707 8.8306 5.48821 8.74884 5.52246 8.67603C5.61669 8.45759 5.83521 8.30795 6.08789 8.30786ZM10.1289 8.33325C10.4543 8.33345 10.7197 8.59506 10.7197 8.91626C10.7195 9.23729 10.4585 9.4981 10.1289 9.49829C9.80342 9.49829 9.53731 9.23741 9.53711 8.91626C9.53711 8.59493 9.8033 8.33325 10.1289 8.33325ZM12.9385 8.27368C13.1827 8.27368 13.3972 8.41059 13.5 8.60767C13.5428 8.68904 13.5645 8.77908 13.5645 8.87329C13.5644 8.96749 13.5385 9.06185 13.5 9.13892C13.3971 9.34019 13.1826 9.4729 12.9385 9.4729C12.5917 9.47273 12.3136 9.203 12.3135 8.87329C12.3135 8.5435 12.5959 8.27385 12.9385 8.27368Z" fill="#212121"/>
<path fill-rule="evenodd" clip-rule="evenodd" d="M15.9548 0.927988H3.12576C2.10073 0.927988 1.26979 1.75894 1.26979 2.78396V15.613C1.26979 16.638 2.10073 17.469 3.12576 17.469H15.9548C16.9798 17.469 17.8108 16.638 17.8108 15.613V2.78396C17.8108 1.75894 16.9798 0.927988 15.9548 0.927988ZM3.12576 0H15.9548C17.4923 0 18.7388 1.24642 18.7388 2.78396V15.613C18.7388 17.1505 17.4923 18.397 15.9548 18.397H3.12576C1.58822 18.397 0.341797 17.1505 0.341797 15.613V2.78396C0.341797 1.24642 1.58822 0 3.12576 0Z" fill="#212121"/>
</g>
<defs>
<clipPath id="clip0_767_7378">
<rect width="18.397" height="18.397" fill="white" transform="translate(0.341797)"/>
</clipPath>
</defs>
</svg>
