<svg width="9" height="9" viewBox="0 0 9 9" fill="none" xmlns="http://www.w3.org/2000/svg">
<g clip-path="url(#clip0_766_6894)">
<path d="M6.69194 0.00805664H2.12919C1.01745 0.00805664 0.116211 0.909298 0.116211 2.02104V6.58379C0.116211 7.69553 1.01745 8.59677 2.12919 8.59677H6.69194C7.80368 8.59677 8.70492 7.69553 8.70492 6.58379V2.02104C8.70492 0.909298 7.80368 0.00805664 6.69194 0.00805664Z" fill="#0277BD"/>
<path d="M1.91895 3.45239L2.01499 4.52404H4.41314V3.45239H1.91895Z" fill="#EBEBEB"/>
<path d="M4.4147 1.28345H4.41101H1.72754L1.82495 2.3551H4.4147V1.28345Z" fill="#EBEBEB"/>
<path d="M4.41371 7.35024V6.23528L4.40902 6.23653L3.21553 5.91428L3.13924 5.05957H2.55929H2.06348L2.21361 6.74222L4.40878 7.35162L4.41371 7.35024Z" fill="#EBEBEB"/>
<path d="M5.73074 4.52411L5.60634 5.91394L4.41113 6.23655V7.35144L6.60806 6.74258L6.62417 6.56151L6.87599 3.74025L6.90213 3.45247L7.09561 1.28345H4.41113V2.3551H5.92117L5.82367 3.45247H4.41113V4.52411H5.73074Z" fill="white"/>
</g>
<defs>
<clipPath id="clip0_766_6894">
<rect width="8.58871" height="8.58871" fill="white" transform="translate(0.116211 0.00805664)"/>
</clipPath>
</defs>
</svg>
