<svg width="9" height="9" viewBox="0 0 9 9" fill="none" xmlns="http://www.w3.org/2000/svg">
<g clip-path="url(#clip0_766_6841)">
<path d="M6.73296 0.00805664H2.17021C1.05847 0.00805664 0.157227 0.909298 0.157227 2.02104V6.58379C0.157227 7.69553 1.05847 8.59677 2.17021 8.59677H6.73296C7.8447 8.59677 8.74594 7.69553 8.74594 6.58379V2.02104C8.74594 0.909298 7.8447 0.00805664 6.73296 0.00805664Z" fill="#242938"/>
<mask id="mask0_766_6841" style="mask-type:luminance" maskUnits="userSpaceOnUse" x="2" y="0" width="5" height="8">
<path d="M6.67828 0.94751H2.2041V7.65744H6.67828V0.94751Z" fill="white"/>
</mask>
<g mask="url(#mask0_766_6841)">
<path d="M3.32243 7.65682C3.93975 7.65682 4.44075 7.15582 4.44075 6.53851V5.42017H3.32243C2.70511 5.42017 2.2041 5.9212 2.2041 6.53851C2.2041 7.15582 2.70511 7.65682 3.32243 7.65682Z" fill="#0ACF83"/>
<path d="M2.2041 4.30191C2.2041 3.6846 2.70511 3.18359 3.32243 3.18359H4.44075V5.42022H3.32243C2.70511 5.42022 2.2041 4.91923 2.2041 4.30191Z" fill="#A259FF"/>
<path d="M2.2041 2.0651C2.2041 1.44778 2.70511 0.946777 3.32243 0.946777H4.44075V3.18342H3.32243C2.70511 3.18342 2.2041 2.68241 2.2041 2.0651Z" fill="#F24E1E"/>
<path d="M4.44141 0.946533H5.55972C6.17703 0.946533 6.67806 1.44754 6.67806 2.06485C6.67806 2.68217 6.17703 3.18318 5.55972 3.18318H4.44141V0.946533Z" fill="#FF7262"/>
<path d="M6.67806 4.30191C6.67806 4.91923 6.17703 5.42022 5.55972 5.42022C4.9424 5.42022 4.44141 4.91923 4.44141 4.30191C4.44141 3.6846 4.9424 3.18359 5.55972 3.18359C6.17703 3.18359 6.67806 3.6846 6.67806 4.30191Z" fill="#1ABCFE"/>
</g>
</g>
<defs>
<clipPath id="clip0_766_6841">
<rect width="8.58871" height="8.58871" fill="white" transform="translate(0.157227 0.00805664)"/>
</clipPath>
</defs>
</svg>
