<svg width="19" height="19" viewBox="0 0 19 19" fill="none" xmlns="http://www.w3.org/2000/svg">
<path fill-rule="evenodd" clip-rule="evenodd" d="M16.1267 0.928232H3.29764C2.27261 0.928232 1.44166 1.75918 1.44166 2.78421V15.6132C1.44166 16.6383 2.27261 17.4692 3.29763 17.4692H16.1267C17.1517 17.4692 17.9826 16.6383 17.9826 15.6132V2.78421C17.9826 1.75918 17.1517 0.928232 16.1267 0.928232ZM3.29764 0.000244141H16.1267C17.6642 0.000244141 18.9106 1.24667 18.9106 2.78421V15.6132C18.9106 17.1508 17.6642 18.3972 16.1267 18.3972H3.29763C1.76009 18.3972 0.513672 17.1508 0.513672 15.6132V2.78421C0.513672 1.24666 1.7601 0.000244141 3.29764 0.000244141Z" fill="#212121"/>
<path d="M9.7124 3.06665C8.90709 3.06665 8.10967 3.22921 7.36566 3.54503C6.62165 3.86086 5.94563 4.32378 5.37619 4.90736C4.22616 6.08594 3.58008 7.68445 3.58008 9.35122C3.58008 12.129 5.34005 14.4857 7.77459 15.3216C8.0812 15.3718 8.17932 15.177 8.17932 15.0073V13.9452C6.48067 14.3223 6.11886 13.1031 6.11886 13.1031C5.83677 12.3741 5.43817 12.1793 5.43817 12.1793C4.88013 11.7896 5.4811 11.8022 5.4811 11.8022C6.09433 11.8462 6.41934 12.4495 6.41934 12.4495C6.95285 13.4048 7.85431 13.122 8.20385 12.9711C8.25904 12.5626 8.41848 12.2861 8.59018 12.129C7.22881 11.9719 5.79998 11.4314 5.79998 9.03699C5.79998 8.3394 6.03301 7.78008 6.43161 7.33387C6.37028 7.17676 6.15565 6.52316 6.49293 5.67475C6.49293 5.67475 7.00805 5.50506 8.17932 6.31577C8.66377 6.17751 9.19115 6.10838 9.7124 6.10838C10.2336 6.10838 10.761 6.17751 11.2455 6.31577C12.4168 5.50506 12.9319 5.67475 12.9319 5.67475C13.2691 6.52316 13.0545 7.17676 12.9932 7.33387C13.3918 7.78008 13.6248 8.3394 13.6248 9.03699C13.6248 11.4377 12.1899 11.9656 10.8223 12.1227C11.0431 12.3175 11.2455 12.7009 11.2455 13.2854V15.0073C11.2455 15.177 11.3436 15.3781 11.6563 15.3216C14.0909 14.4794 15.8447 12.129 15.8447 9.35122C15.8447 8.52592 15.6861 7.7087 15.3779 6.94622C15.0697 6.18374 14.618 5.49093 14.0486 4.90736C13.4792 4.32378 12.8031 3.86086 12.0591 3.54503C11.3151 3.22921 10.5177 3.06665 9.7124 3.06665Z" fill="#212121"/>
</svg>
