<svg width="22" height="22" viewBox="0 0 22 22" fill="none" xmlns="http://www.w3.org/2000/svg">
<path fill-rule="evenodd" clip-rule="evenodd" d="M18.6708 1.10973H3.3292C2.10342 1.10973 1.10973 2.10342 1.10973 3.3292V18.6708C1.10973 19.8966 2.10342 20.8903 3.3292 20.8903H18.6708C19.8966 20.8903 20.8903 19.8966 20.8903 18.6708V3.3292C20.8903 2.10342 19.8966 1.10973 18.6708 1.10973ZM3.3292 0H18.6708C20.5095 0 22 1.49054 22 3.3292V18.6708C22 20.5095 20.5095 22 18.6708 22H3.3292C1.49053 22 0 20.5095 0 18.6708V3.3292C0 1.49053 1.49054 0 3.3292 0Z" fill="white"/>
<path d="M10.9993 3.66699C10.0363 3.66699 9.08272 3.86138 8.193 4.23907C7.30328 4.61675 6.49486 5.17033 5.8139 5.8682C4.43863 7.27761 3.66602 9.18918 3.66602 11.1824C3.66602 14.5042 5.77068 17.3225 8.68202 18.322C9.04868 18.3821 9.16601 18.1492 9.16601 17.9462V16.6761C7.13468 17.1271 6.70202 15.6691 6.70202 15.6691C6.36468 14.7973 5.88802 14.5643 5.88802 14.5643C5.22068 14.0984 5.93935 14.1134 5.93935 14.1134C6.67268 14.166 7.06135 14.8875 7.06135 14.8875C7.69935 16.0298 8.77735 15.6916 9.19535 15.5113C9.26135 15.0228 9.45201 14.6921 9.65735 14.5042C8.02935 14.3163 6.32068 13.67 6.32068 10.8066C6.32068 9.97241 6.59935 9.30354 7.07602 8.76995C7.00268 8.58206 6.74602 7.80046 7.14935 6.78588C7.14935 6.78588 7.76535 6.58297 9.16601 7.55245C9.74535 7.38711 10.376 7.30444 10.9993 7.30444C11.6227 7.30444 12.2533 7.38711 12.8327 7.55245C14.2333 6.58297 14.8493 6.78588 14.8493 6.78588C15.2527 7.80046 14.996 8.58206 14.9227 8.76995C15.3993 9.30354 15.678 9.97241 15.678 10.8066C15.678 13.6775 13.962 14.3088 12.3267 14.4967C12.5907 14.7297 12.8327 15.1881 12.8327 15.887V17.9462C12.8327 18.1492 12.95 18.3897 13.324 18.322C16.2353 17.315 18.3327 14.5042 18.3327 11.1824C18.3327 10.1955 18.143 9.21818 17.7745 8.30637C17.4059 7.39456 16.8658 6.56607 16.1848 5.8682C15.5038 5.17033 14.6954 4.61675 13.8057 4.23907C12.916 3.86138 11.9624 3.66699 10.9993 3.66699Z" fill="white"/>
</svg>
