<svg width="9" height="9" viewBox="0 0 9 9" fill="none" xmlns="http://www.w3.org/2000/svg">
<g clip-path="url(#clip0_766_6825)">
<path d="M6.73296 0.00805664H2.17021C1.05847 0.00805664 0.157227 0.909298 0.157227 2.02104V6.58379C0.157227 7.69553 1.05847 8.59677 2.17021 8.59677H6.73296C7.8447 8.59677 8.74594 7.69553 8.74594 6.58379V2.02104C8.74594 0.909298 7.8447 0.00805664 6.73296 0.00805664Z" fill="#E14E1D"/>
<path d="M1.76758 1.28345L2.05643 4.52411H5.77072L5.64609 5.91407L4.45017 6.23742L3.25651 5.91454L3.1767 5.02205H2.10102L2.25484 6.74251L4.44991 7.35218L6.64774 6.74251L6.94241 3.4526H3.03656L2.93849 2.35518H7.03625H7.03954L7.13552 1.28345H1.76758Z" fill="white"/>
<path d="M4.45155 1.28345H1.76758L2.05643 4.52411H4.45155V3.4526H3.03656L2.93849 2.35518H4.45155V1.28345Z" fill="#EBEBEB"/>
<path d="M4.45111 6.23687L4.44974 6.23734L3.25608 5.91446L3.17627 5.02197H2.10059L2.2544 6.74243L4.44947 7.3521L4.45111 7.35163V6.23687Z" fill="#EBEBEB"/>
</g>
<defs>
<clipPath id="clip0_766_6825">
<rect width="8.58871" height="8.58871" fill="white" transform="translate(0.157227 0.00805664)"/>
</clipPath>
</defs>
</svg>
