<svg width="22" height="22" viewBox="0 0 22 22" fill="none" xmlns="http://www.w3.org/2000/svg">
<path fill-rule="evenodd" clip-rule="evenodd" d="M17.6 1.1H4.4C2.57746 1.1 1.1 2.57746 1.1 4.4V17.6C1.1 19.4225 2.57746 20.9 4.4 20.9H17.6C19.4225 20.9 20.9 19.4225 20.9 17.6V4.4C20.9 2.57746 19.4225 1.1 17.6 1.1ZM4.4 0C1.96995 0 0 1.96995 0 4.4V17.6C0 20.0301 1.96995 22 4.4 22H17.6C20.0301 22 22 20.0301 22 17.6V4.4C22 1.96995 20.0301 0 17.6 0H4.4Z" fill="white"/>
<g clip-path="url(#clip0_796_3028)">
<path d="M11.0001 5.1385C12.9104 5.1385 13.1346 5.14702 13.8896 5.18108C14.5879 5.2123 14.9654 5.32867 15.218 5.42802C15.5529 5.55859 15.7914 5.71186 16.0412 5.96164C16.2909 6.21143 16.4471 6.44985 16.5748 6.78479C16.6713 7.03741 16.7905 7.41492 16.8217 8.11317C16.8558 8.86819 16.8643 9.09243 16.8643 11.0027C16.8643 12.913 16.8558 13.1372 16.8217 13.8922C16.7905 14.5905 16.6741 14.968 16.5748 15.2206C16.4442 15.5555 16.2909 15.794 16.0412 16.0437C15.7914 16.2935 15.5529 16.4496 15.218 16.5774C14.9654 16.6739 14.5879 16.7931 13.8896 16.8243C13.1346 16.8584 12.9104 16.8669 11.0001 16.8669C9.08984 16.8669 8.8656 16.8584 8.11058 16.8243C7.41233 16.7931 7.03482 16.6767 6.7822 16.5774C6.44726 16.4468 6.20883 16.2935 5.95905 16.0437C5.70927 15.794 5.55316 15.5555 5.42543 15.2206C5.32892 14.968 5.20971 14.5905 5.17848 13.8922C5.14442 13.1372 5.13591 12.913 5.13591 11.0027C5.13591 9.09243 5.14442 8.86819 5.17848 8.11317C5.20971 7.41492 5.32608 7.03741 5.42543 6.78479C5.55599 6.44985 5.70927 6.21143 5.95905 5.96164C6.20883 5.71186 6.44726 5.55575 6.7822 5.42802C7.03482 5.33151 7.41233 5.2123 8.11058 5.18108C8.8656 5.14418 9.09268 5.1385 11.0001 5.1385ZM11.0001 3.84985C9.05862 3.84985 8.81451 3.85837 8.05097 3.89243C7.29028 3.92649 6.77084 4.04854 6.31669 4.22453C5.84551 4.40619 5.44813 4.65313 5.05075 5.05051C4.65337 5.44789 4.40927 5.84811 4.22477 6.31645C4.04879 6.7706 3.92674 7.29003 3.89267 8.05357C3.85861 8.81426 3.8501 9.05837 3.8501 10.9999C3.8501 12.9413 3.85861 13.1854 3.89267 13.949C3.92674 14.7097 4.04879 15.2291 4.22477 15.6861C4.40643 16.1573 4.65337 16.5547 5.05075 16.952C5.44813 17.3494 5.84835 17.5935 6.31669 17.778C6.77084 17.954 7.29028 18.0761 8.05381 18.1101C8.81735 18.1442 9.05862 18.1527 11.0029 18.1527C12.9473 18.1527 13.1885 18.1442 13.9521 18.1101C14.7128 18.0761 15.2322 17.954 15.6892 17.778C16.1604 17.5964 16.5578 17.3494 16.9551 16.952C17.3525 16.5547 17.5966 16.1544 17.7811 15.6861C17.9571 15.2319 18.0792 14.7125 18.1132 13.949C18.1473 13.1854 18.1558 12.9442 18.1558 10.9999C18.1558 9.05553 18.1473 8.81426 18.1132 8.05073C18.0792 7.29003 17.9571 6.7706 17.7811 6.31361C17.5995 5.84243 17.3525 5.44505 16.9551 5.04767C16.5578 4.65029 16.1575 4.40619 15.6892 4.22169C15.235 4.04571 14.7156 3.92365 13.9521 3.88959C13.1857 3.85837 12.9416 3.84985 11.0001 3.84985Z" fill="white"/>
<path d="M11.0001 7.32983C8.97344 7.32983 7.32715 8.97328 7.32715 11.0028C7.32715 13.0322 8.9706 14.6757 11.0001 14.6757C13.0295 14.6757 14.673 13.0322 14.673 11.0028C14.673 8.97328 13.0295 7.32983 11.0001 7.32983ZM11.0001 13.3842C9.68304 13.3842 8.61579 12.317 8.61579 10.9999C8.61579 9.68289 9.68304 8.61564 11.0001 8.61564C12.3171 8.61564 13.3844 9.68289 13.3844 10.9999C13.3844 12.317 12.3171 13.3842 11.0001 13.3842Z" fill="white"/>
<path d="M14.8177 8.03936C15.2911 8.03936 15.6749 7.65558 15.6749 7.18216C15.6749 6.70874 15.2911 6.32495 14.8177 6.32495C14.3442 6.32495 13.9604 6.70874 13.9604 7.18216C13.9604 7.65558 14.3442 8.03936 14.8177 8.03936Z" fill="white"/>
</g>
<defs>
<clipPath id="clip0_796_3028">
<rect width="14.3" height="14.3" fill="white" transform="translate(3.8501 3.84985)"/>
</clipPath>
</defs>
</svg>
