<svg width="19" height="19" viewBox="0 0 19 19" fill="none" xmlns="http://www.w3.org/2000/svg">
<path fill-rule="evenodd" clip-rule="evenodd" d="M14.7176 0.919848H3.67939C2.15534 0.919848 0.919848 2.15534 0.919848 3.67939V14.7176C0.919848 16.2416 2.15534 17.4771 3.67939 17.4771H14.7176C16.2416 17.4771 17.4771 16.2416 17.4771 14.7176V3.67939C17.4771 2.15534 16.2416 0.919848 14.7176 0.919848ZM3.67939 0C1.64732 0 0 1.64732 0 3.67939V14.7176C0 16.7496 1.64732 18.397 3.67939 18.397H14.7176C16.7496 18.397 18.397 16.7496 18.397 14.7176V3.67939C18.397 1.64732 16.7496 0 14.7176 0H3.67939Z" fill="#212121"/>
<g clip-path="url(#clip0_767_7376)">
<path d="M9.19875 4.29708C10.7962 4.29708 10.9837 4.3042 11.615 4.33268C12.1989 4.35879 12.5146 4.45611 12.7259 4.53919C13.0059 4.64837 13.2053 4.77654 13.4142 4.98542C13.6231 5.19429 13.7536 5.39367 13.8604 5.67375C13.9411 5.885 14.0408 6.20068 14.0669 6.78458C14.0954 7.41595 14.1025 7.60346 14.1025 9.20087C14.1025 10.7983 14.0954 10.9858 14.0669 11.6172C14.0408 12.2011 13.9435 12.5167 13.8604 12.728C13.7512 13.0081 13.6231 13.2074 13.4142 13.4163C13.2053 13.6252 13.0059 13.7557 12.7259 13.8626C12.5146 13.9433 12.1989 14.0429 11.615 14.0691C10.9837 14.0975 10.7962 14.1047 9.19875 14.1047C7.60133 14.1047 7.41382 14.0975 6.78245 14.0691C6.19855 14.0429 5.88287 13.9456 5.67162 13.8626C5.39154 13.7534 5.19216 13.6252 4.98329 13.4163C4.77441 13.2074 4.64387 13.0081 4.53706 12.728C4.45636 12.5167 4.35667 12.2011 4.33056 11.6172C4.30207 10.9858 4.29495 10.7983 4.29495 9.20087C4.29495 7.60346 4.30207 7.41595 4.33056 6.78458C4.35667 6.20068 4.45398 5.885 4.53706 5.67375C4.64624 5.39367 4.77441 5.19429 4.98329 4.98542C5.19216 4.77654 5.39154 4.646 5.67162 4.53919C5.88287 4.45848 6.19855 4.35879 6.78245 4.33268C7.41382 4.30183 7.60371 4.29708 9.19875 4.29708ZM9.19875 3.21948C7.57522 3.21948 7.3711 3.2266 6.73261 3.25509C6.09649 3.28357 5.66213 3.38563 5.28236 3.53279C4.88835 3.6847 4.55605 3.8912 4.22375 4.2235C3.89145 4.5558 3.68732 4.89047 3.53304 5.28211C3.38588 5.66188 3.28381 6.09624 3.25533 6.73473C3.22685 7.37085 3.21973 7.57498 3.21973 9.19849C3.21973 10.822 3.22685 11.0261 3.25533 11.6646C3.28381 12.3007 3.38588 12.7351 3.53304 13.1173C3.68495 13.5113 3.89145 13.8436 4.22375 14.1759C4.55605 14.5082 4.89072 14.7123 5.28236 14.8666C5.66213 15.0137 6.09649 15.1158 6.73498 15.1443C7.37347 15.1728 7.57522 15.1799 9.20112 15.1799C10.827 15.1799 11.0288 15.1728 11.6673 15.1443C12.3034 15.1158 12.7377 15.0137 13.1199 14.8666C13.5139 14.7147 13.8462 14.5082 14.1785 14.1759C14.5108 13.8436 14.7149 13.5089 14.8692 13.1173C15.0164 12.7375 15.1184 12.3031 15.1469 11.6646C15.1754 11.0261 15.1825 10.8244 15.1825 9.19849C15.1825 7.5726 15.1754 7.37085 15.1469 6.73236C15.1184 6.09624 15.0164 5.66188 14.8692 5.27974C14.7173 4.88573 14.5108 4.55343 14.1785 4.22113C13.8462 3.88883 13.5115 3.6847 13.1199 3.53042C12.7401 3.38326 12.3057 3.2812 11.6673 3.25271C11.0264 3.2266 10.8223 3.21948 9.19875 3.21948Z" fill="#212121"/>
<path d="M9.19835 6.12939C7.50362 6.12939 6.12695 7.50369 6.12695 9.20079C6.12695 10.8979 7.50125 12.2722 9.19835 12.2722C10.8954 12.2722 12.2697 10.8979 12.2697 9.20079C12.2697 7.50369 10.8954 6.12939 9.19835 6.12939ZM9.19835 11.1922C8.09701 11.1922 7.20455 10.2997 7.20455 9.19842C7.20455 8.09708 8.09701 7.20462 9.19835 7.20462C10.2997 7.20462 11.1921 8.09708 11.1921 9.19842C11.1921 10.2997 10.2997 11.1922 9.19835 11.1922Z" fill="#212121"/>
<path d="M12.3906 6.72294C12.7865 6.72294 13.1075 6.40201 13.1075 6.00612C13.1075 5.61024 12.7865 5.28931 12.3906 5.28931C11.9948 5.28931 11.6738 5.61024 11.6738 6.00612C11.6738 6.40201 11.9948 6.72294 12.3906 6.72294Z" fill="#212121"/>
</g>
<defs>
<clipPath id="clip0_767_7376">
<rect width="11.958" height="11.958" fill="white" transform="translate(3.21973 3.21948)"/>
</clipPath>
</defs>
</svg>
