<svg width="10" height="9" viewBox="0 0 10 9" fill="none" xmlns="http://www.w3.org/2000/svg">
<g clip-path="url(#clip0_766_6902)">
<path d="M7.07183 0.00805664H2.50907C1.39734 0.00805664 0.496094 0.909298 0.496094 2.02104V6.58379C0.496094 7.69553 1.39734 8.59677 2.50907 8.59677H7.07183C8.18356 8.59677 9.0848 7.69553 9.0848 6.58379V2.02104C9.0848 0.909298 8.18356 0.00805664 7.07183 0.00805664Z" fill="#F0DB4F"/>
<path d="M2.75392 7.1857L3.41119 6.78794C3.53799 7.01275 3.65334 7.20298 3.93001 7.20298C4.19522 7.20298 4.36243 7.09925 4.36243 6.69571V3.95142H5.16957V6.70712C5.16957 7.54307 4.67955 7.92359 3.9646 7.92359C3.31895 7.92359 2.94415 7.5892 2.75391 7.18564" fill="#323330"/>
<path d="M5.6084 7.09899L6.26557 6.7185C6.43858 7.00102 6.66343 7.20856 7.0612 7.20856C7.39566 7.20856 7.6089 7.04135 7.6089 6.81073C7.6089 6.53401 7.38982 6.43598 7.02084 6.27461L6.8191 6.18808C6.23678 5.94022 5.85049 5.62888 5.85049 4.97164C5.85049 4.36627 6.31173 3.90503 7.03241 3.90503C7.54552 3.90503 7.9145 4.08378 8.17968 4.55076L7.55126 4.95433C7.41287 4.70643 7.26303 4.60843 7.03241 4.60843C6.79602 4.60843 6.64612 4.75833 6.64612 4.95433C6.64612 5.19646 6.79602 5.29449 7.14192 5.44442L7.34369 5.53088C8.02974 5.82494 8.41603 6.12467 8.41603 6.79919C8.41603 7.52567 7.84529 7.92344 7.07851 7.92344C6.32904 7.92344 5.84476 7.566 5.6084 7.09899Z" fill="#323330"/>
</g>
<defs>
<clipPath id="clip0_766_6902">
<rect width="8.58871" height="8.58871" fill="white" transform="translate(0.496094 0.00805664)"/>
</clipPath>
</defs>
</svg>
