<svg width="18" height="18" viewBox="0 0 18 18" fill="none" xmlns="http://www.w3.org/2000/svg">
<path fill-rule="evenodd" clip-rule="evenodd" d="M15.2761 0.907964H2.72389C1.72098 0.907964 0.907964 1.72098 0.907964 2.72389V15.2761C0.907964 16.279 1.72098 17.092 2.72389 17.092H15.2761C16.279 17.092 17.092 16.279 17.092 15.2761V2.72389C17.092 1.72098 16.279 0.907964 15.2761 0.907964ZM2.72389 0H15.2761C16.7805 0 18 1.21953 18 2.72389V15.2761C18 16.7805 16.7805 18 15.2761 18H2.72389C1.21953 18 0 16.7805 0 15.2761V2.72389C0 1.21953 1.21953 0 2.72389 0Z" fill="#212121"/>
<path d="M5.82383 5.34819C6.17305 5.63179 6.3043 5.61069 6.96289 5.56616L13.1574 5.19351C13.2887 5.19351 13.1785 5.06226 13.1363 5.04116L12.1051 4.29819C11.9082 4.14585 11.6457 3.97007 11.1418 4.0146L5.14414 4.45054C4.92617 4.47163 4.88164 4.58179 4.96836 4.66851L5.82148 5.34585L5.82383 5.34819ZM6.19648 6.79194V13.3099C6.19648 13.6591 6.37227 13.7904 6.76602 13.7693L13.5746 13.3755C13.9684 13.3544 14.0129 13.113 14.0129 12.8294V6.35601C14.0129 6.07241 13.9027 5.91772 13.6613 5.94116L6.5457 6.35366C6.2832 6.37476 6.19648 6.50601 6.19648 6.79194ZM12.916 7.14116C12.9605 7.33804 12.916 7.53491 12.7191 7.55835L12.391 7.62397V12.4357C12.1051 12.588 11.8426 12.6771 11.6246 12.6771C11.273 12.6771 11.1863 12.5669 10.9238 12.2388L8.7793 8.87085V12.1287L9.45898 12.281C9.45898 12.281 9.45898 12.6748 8.91055 12.6748L7.40117 12.7615C7.35664 12.6748 7.40117 12.4544 7.55352 12.4123L7.94727 12.3021V7.99429L7.40117 7.94976C7.35664 7.75288 7.4668 7.46929 7.77383 7.44585L9.39336 7.33569L11.627 10.7482V7.72944L11.0574 7.66382C11.0129 7.42241 11.1887 7.24897 11.4066 7.22554L12.9184 7.13647L12.916 7.14116ZM4.64023 3.85991L10.8793 3.40054C11.6457 3.33491 11.8426 3.37944 12.323 3.72866L14.3152 5.12788C14.6434 5.36929 14.7535 5.43491 14.7535 5.69741V13.3755C14.7535 13.856 14.5777 14.1419 13.966 14.1841L6.72148 14.6201C6.26211 14.6412 6.0418 14.5755 5.80273 14.2708L4.33555 12.3677C4.07305 12.0185 3.96289 11.756 3.96289 11.449V4.62397C3.96289 4.23022 4.13867 3.9021 4.64023 3.85757V3.85991Z" fill="#212121"/>
</svg>
