<svg width="9" height="9" viewBox="0 0 9 9" fill="none" xmlns="http://www.w3.org/2000/svg">
<g clip-path="url(#clip0_766_6854)">
<path d="M6.73395 0.205078H2.17051C1.0586 0.205078 0.157227 1.10645 0.157227 2.21836V6.7818C0.157227 7.8937 1.0586 8.79508 2.17051 8.79508H6.73395C7.84585 8.79508 8.74723 7.8937 8.74723 6.7818V2.21836C8.74723 1.10645 7.84585 0.205078 6.73395 0.205078Z" fill="#001E36"/>
<path d="M2.08984 6.17911V2.49615C2.08984 2.47109 2.10058 2.45678 2.12564 2.45678C2.18648 2.45678 2.24375 2.45678 2.32607 2.4532C2.41197 2.44962 2.50145 2.44962 2.59809 2.44604C2.69472 2.44246 2.79852 2.44246 2.90947 2.43888C3.02043 2.4353 3.1278 2.4353 3.23518 2.4353C3.52867 2.4353 3.77204 2.47109 3.97249 2.54625C4.15144 2.6071 4.31609 2.70732 4.45209 2.83975C4.56661 2.95428 4.6561 3.09387 4.71338 3.24777C4.76707 3.3981 4.79569 3.552 4.79569 3.71308C4.79569 4.02088 4.72412 4.27499 4.58094 4.47544C4.43776 4.67586 4.23734 4.82619 4.00471 4.91209C3.7613 5.00158 3.49288 5.03379 3.19939 5.03379C3.11349 5.03379 3.05622 5.03379 3.02043 5.0302C2.98464 5.02661 2.93453 5.02661 2.86652 5.02661V6.17552C2.8701 6.20059 2.85221 6.22206 2.82715 6.22565C2.82357 6.22565 2.81999 6.22565 2.81284 6.22565H2.13279C2.10416 6.22565 2.08984 6.21133 2.08984 6.17911ZM2.8701 3.14755V4.35015C2.92021 4.35374 2.96674 4.35733 3.00969 4.35733H3.19939C3.33897 4.35733 3.47856 4.33585 3.61098 4.2929C3.72553 4.26069 3.82573 4.19268 3.90448 4.10319C3.97964 4.01373 4.01544 3.89203 4.01544 3.73455C4.019 3.62359 3.99038 3.51263 3.9331 3.41599C3.87227 3.32293 3.78637 3.25135 3.68258 3.21198C3.55014 3.15829 3.40698 3.13682 3.26023 3.1404C3.16717 3.1404 3.08485 3.1404 3.01685 3.14398C2.94526 3.1404 2.89516 3.14398 2.8701 3.14755Z" fill="#31A8FF"/>
<path d="M7.0296 4.1319C6.92223 4.07463 6.80771 4.03527 6.686 4.0102C6.55356 3.98158 6.42116 3.96366 6.28512 3.96366C6.21355 3.9601 6.13839 3.97084 6.07037 3.98873C6.02387 3.99946 5.98447 4.02453 5.95944 4.0603C5.94152 4.08895 5.93079 4.12472 5.93079 4.15694C5.93079 4.18915 5.94511 4.22136 5.96659 4.25002C5.9988 4.28938 6.04175 4.32159 6.08829 4.34665C6.1706 4.3896 6.2565 4.42896 6.3424 4.46477C6.53568 4.52919 6.7218 4.61865 6.8936 4.72602C7.01172 4.80119 7.10836 4.90141 7.17634 5.02312C7.23361 5.13764 7.26224 5.2629 7.25868 5.39175C7.26224 5.55999 7.21214 5.7282 7.11909 5.86779C7.01886 6.01097 6.87928 6.1219 6.71821 6.18632C6.54282 6.26149 6.32807 6.30088 6.07037 6.30088C5.90576 6.30088 5.74469 6.28655 5.58363 6.25434C5.45834 6.23286 5.33308 6.1935 5.21856 6.13982C5.19349 6.12549 5.17561 6.10042 5.17916 6.0718V5.44903C5.17916 5.43829 5.18275 5.42396 5.19349 5.41681C5.20423 5.40967 5.21496 5.41322 5.2257 5.4204C5.36529 5.50271 5.51202 5.55999 5.66953 5.59576C5.80553 5.63156 5.94871 5.64945 6.09185 5.64945C6.22788 5.64945 6.32452 5.63156 6.38894 5.59935C6.44619 5.57429 6.48558 5.51345 6.48558 5.44903C6.48558 5.39893 6.45692 5.35239 6.39968 5.30585C6.3424 5.25934 6.22429 5.20565 6.0489 5.13764C5.86636 5.07321 5.69815 4.98731 5.54068 4.87994C5.42971 4.80119 5.33667 4.6974 5.26865 4.5757C5.21137 4.46118 5.18275 4.33592 5.18634 4.21062C5.18634 4.05674 5.22929 3.90997 5.30801 3.77757C5.3975 3.63439 5.52994 3.51985 5.68382 3.44827C5.85207 3.36237 6.06323 3.323 6.31734 3.323C6.46411 3.323 6.61443 3.33374 6.76116 3.35521C6.86854 3.36953 6.97232 3.39816 7.06896 3.43753C7.08329 3.44111 7.09762 3.45543 7.10476 3.46974C7.10835 3.48406 7.11191 3.49838 7.11191 3.51269V4.0961C7.11191 4.11043 7.10476 4.12472 7.09403 4.1319C7.06181 4.13905 7.04393 4.13905 7.0296 4.1319Z" fill="#31A8FF"/>
</g>
<defs>
<clipPath id="clip0_766_6854">
<rect width="8.59" height="8.59" fill="white" transform="translate(0.157227 0.205078)"/>
</clipPath>
</defs>
</svg>
