<svg width="10" height="9" viewBox="0 0 10 9" fill="none" xmlns="http://www.w3.org/2000/svg">
<g clip-path="url(#clip0_766_6832)">
<path d="M7.45073 0.00805664H2.88798C1.77624 0.00805664 0.875 0.909298 0.875 2.02104V6.58379C0.875 7.69553 1.77624 8.59677 2.88798 8.59677H7.45073C8.56247 8.59677 9.46371 7.69553 9.46371 6.58379V2.02104C9.46371 0.909298 8.56247 0.00805664 7.45073 0.00805664Z" fill="#242938"/>
<path d="M5.16985 4.93808C5.51554 4.93808 5.79575 4.65784 5.79575 4.31218C5.79575 3.96652 5.51554 3.68628 5.16985 3.68628C4.82419 3.68628 4.54395 3.96652 4.54395 4.31218C4.54395 4.65784 4.82419 4.93808 5.16985 4.93808Z" fill="#00D8FF"/>
<path fill-rule="evenodd" clip-rule="evenodd" d="M5.16948 3.04004C6.00984 3.04004 6.7905 3.16062 7.37913 3.36327C8.08834 3.60742 8.52438 3.97751 8.52438 4.31263C8.52438 4.66185 8.06227 5.05502 7.30066 5.30735C6.72488 5.49811 5.96719 5.59769 5.16948 5.59769C4.35161 5.59769 3.57711 5.50422 2.99484 5.30523C2.25816 5.05344 1.81445 4.65521 1.81445 4.31263C1.81445 3.98022 2.23079 3.61299 2.93003 3.36922C3.52085 3.16323 4.32078 3.04004 5.16935 3.04004H5.16948Z" stroke="#00D8FF" stroke-width="0.597922"/>
<path fill-rule="evenodd" clip-rule="evenodd" d="M4.06177 3.67996C4.4816 2.95201 4.97603 2.33597 5.44565 1.9273C6.01144 1.43491 6.54991 1.24207 6.84018 1.40947C7.1427 1.58392 7.25244 2.18068 7.09056 2.96647C6.96827 3.56056 6.67592 4.26664 6.27738 4.9577C5.86878 5.6662 5.40093 6.29043 4.93771 6.6953C4.35157 7.20767 3.78489 7.3931 3.48814 7.22197C3.20019 7.05603 3.09007 6.51182 3.22821 5.7843C3.34493 5.16957 3.63783 4.41507 4.06163 3.67996H4.06177Z" stroke="#00D8FF" stroke-width="0.597922"/>
<path fill-rule="evenodd" clip-rule="evenodd" d="M4.06301 4.95959C3.642 4.23243 3.35535 3.49629 3.23571 2.88534C3.09168 2.14923 3.19351 1.58642 3.48354 1.41854C3.78577 1.24357 4.35757 1.44654 4.9575 1.97923C5.4111 2.38197 5.87687 2.98778 6.27654 3.67816C6.68632 4.38599 6.99343 5.10311 7.1129 5.70661C7.26408 6.47033 7.14172 7.05386 6.84524 7.22546C6.55759 7.39201 6.03116 7.2157 5.46984 6.73265C4.99558 6.32456 4.48818 5.69399 4.06301 4.95959Z" stroke="#00D8FF" stroke-width="0.597922"/>
</g>
<defs>
<clipPath id="clip0_766_6832">
<rect width="8.58871" height="8.58871" fill="white" transform="translate(0.875 0.00805664)"/>
</clipPath>
</defs>
</svg>
