<svg width="9" height="9" viewBox="0 0 9 9" fill="none" xmlns="http://www.w3.org/2000/svg">
<g clip-path="url(#clip0_766_6870)">
<path d="M6.73296 0.201416H2.17021C1.05847 0.201416 0.157227 1.10266 0.157227 2.2144V6.77715C0.157227 7.88889 1.05847 8.79013 2.17021 8.79013H6.73296C7.8447 8.79013 8.74594 7.88889 8.74594 6.77715V2.2144C8.74594 1.10266 7.8447 0.201416 6.73296 0.201416Z" fill="url(#paint0_linear_766_6870)"/>
<path d="M0.542605 4.5319L2.23029 5.21577V5.69449L0.232422 4.76882V4.48795L0.542605 4.5319ZM2.23029 3.97017L0.545047 4.66378L0.232422 4.698V4.41467L2.23029 3.49146V3.97017Z" fill="white"/>
<path d="M8.25411 4.62935L6.51758 3.95282V3.48633L8.60336 4.40953V4.69531L8.25411 4.62935ZM6.51758 5.22529L8.25901 4.5341L8.60336 4.48281V4.76613L6.51758 5.6918V5.22529Z" fill="white"/>
<path fill-rule="evenodd" clip-rule="evenodd" d="M6.06368 2.25136C6.05401 2.40456 5.985 2.56453 6.00423 2.71346C6.12477 2.92661 6.39008 2.96062 6.60896 2.97523C6.7606 3.00233 6.75869 2.90192 6.74852 2.78912C6.74913 2.60881 6.74973 2.4285 6.75037 2.24819C6.52146 2.24902 6.29248 2.24592 6.06368 2.25136ZM4.25867 2.67982C3.886 2.74306 3.50824 2.92114 3.19821 3.13554C2.94866 3.32974 3.41242 3.51797 3.58067 3.54943C3.91918 3.55355 4.21942 3.32524 4.44178 3.08822C4.51439 2.98856 4.60507 2.83603 4.51385 2.72054C4.4442 2.66014 4.34291 2.6748 4.25867 2.67982ZM5.05168 3.2218C4.74527 3.28014 4.45373 3.40645 4.19577 3.58228C4.00665 3.64167 3.85077 3.8493 4.08512 3.95334C4.33121 4.14944 4.61641 4.1014 4.84304 3.96901C5.05058 3.84565 5.27476 3.69343 5.37077 3.46121C5.46146 3.20681 5.22748 3.19736 5.05168 3.2218ZM5.92092 4.20758C5.86385 4.44592 5.62384 4.55428 5.49615 4.74313C5.39174 4.88089 5.44009 5.04317 5.55895 5.1516C5.61683 5.27161 5.71828 5.33867 5.82708 5.23444C6.10729 5.04394 6.18479 4.67288 6.17315 4.35137C6.19385 4.21859 6.0415 4.33863 5.92092 4.20758ZM4.85461 4.65523C4.48251 4.71891 4.11035 4.90021 3.80018 5.11426C3.5594 5.30821 4.01289 5.48931 4.18251 5.51803C4.5273 5.51853 4.83485 5.29633 5.05286 5.04397C5.12868 4.94376 5.22057 4.74914 5.07044 4.66946C5.00331 4.64101 4.92537 4.64936 4.85461 4.65523Z" fill="#B956A6"/>
<path fill-rule="evenodd" clip-rule="evenodd" d="M3.19902 3.13528C2.91285 3.24979 2.63677 3.38883 2.36417 3.53442C2.3135 3.72281 2.35413 3.95608 2.34099 4.16264C2.34 5.01198 2.34049 5.86136 2.34033 6.7107C2.55081 6.7107 2.76129 6.7107 2.97177 6.7107C3.09924 6.59066 3.25896 6.5028 3.39743 6.39379C3.93066 6.01136 4.46373 5.62745 4.99627 5.24609C5.03545 5.26371 5.01036 5.01557 4.9244 5.18792C4.72072 5.37959 4.45038 5.53724 4.16423 5.52184C4.00185 5.46843 3.7401 5.37781 3.73846 5.17883C3.85276 5.04426 3.52756 5.24928 3.4386 5.27864C3.14931 5.41753 2.86688 5.57263 2.57701 5.70894C2.64669 5.63413 2.77702 5.56438 2.86939 5.49017C3.52941 5.01638 4.18926 4.54075 4.85086 4.06733C4.97811 3.97798 5.10104 3.88052 5.23222 3.79702C5.2442 3.84328 5.26668 3.57582 5.16911 3.74049C4.97023 3.93762 4.70197 4.08437 4.41904 4.08638C4.25992 4.03807 3.921 3.92256 3.99645 3.7171C4.03326 3.645 3.65465 3.87079 3.82193 3.74347C3.99997 3.61337 4.17943 3.48557 4.35886 3.35682C4.44947 3.34999 4.43018 3.01341 4.30705 3.23053C4.10022 3.41226 3.82847 3.57854 3.5436 3.53913C3.38357 3.49307 3.19156 3.40384 3.1334 3.23649C3.11413 3.1963 3.24114 3.13369 3.19902 3.13528ZM4.38462 3.34306C4.36875 3.38846 4.41337 3.32647 4.38462 3.34306V3.34306Z" fill="#FCCC44"/>
<path fill-rule="evenodd" clip-rule="evenodd" d="M6.19188 2.91049C6.10254 3.33715 6.00487 3.78364 5.9209 4.20744C6.16219 4.51154 6.18557 4.01534 6.22778 3.87503C6.29598 3.58178 6.37677 3.36034 6.38533 3.05671C6.40344 2.95311 6.28166 2.89034 6.19188 2.91049ZM6.4687 3.24505C6.46115 3.2888 6.4797 3.25328 6.4687 3.24505V3.24505ZM6.18722 4.20171C6.19882 4.17668 6.19882 4.2267 6.18722 4.20171V4.20171Z" fill="#62777F"/>
<path fill-rule="evenodd" clip-rule="evenodd" d="M6.35037 2.95878C6.42566 3.38161 6.17629 3.89524 6.09473 4.29388C6.27992 4.1576 6.42301 3.53928 6.45958 3.29726C6.46901 3.26958 6.48061 3.19991 6.48313 3.19742C6.49477 3.13865 6.60324 3.03912 6.60918 2.97508C6.67232 2.93051 6.29884 2.92333 6.35037 2.95878ZM6.19682 4.20169C6.18518 4.17666 6.18518 4.22668 6.19682 4.20169V4.20169Z" fill="#4E5E67"/>
<path fill-rule="evenodd" clip-rule="evenodd" d="M3.20534 3.14221C3.10094 3.24674 3.14012 3.22121 3.21784 3.13428L3.20534 3.14221ZM4.33463 3.19398C4.21368 3.37572 3.77754 3.52769 3.72262 3.53947C3.98497 3.49033 4.22952 3.32713 4.40159 3.13593C4.37425 3.14811 4.35801 3.17675 4.33463 3.19398ZM3.1336 3.25299C3.19879 3.40973 3.43583 3.51389 3.55101 3.53818C3.39376 3.48753 3.20865 3.39767 3.1336 3.25299ZM4.37529 3.34363C4.34238 3.38249 4.22516 3.44063 4.16336 3.49761C4.0308 3.5954 3.89368 3.68625 3.76264 3.78647C3.84608 3.78288 4.09059 3.60023 3.96525 3.78556C4.07146 3.96837 4.30272 4.09549 4.51358 4.08388C4.79204 4.04017 5.04883 3.88621 5.23342 3.6721C5.00934 3.89382 4.7131 4.1025 4.38529 4.07375C4.22663 4.03712 3.7931 3.81317 4.08311 3.65619C4.18537 3.57208 4.36167 3.52802 4.38163 3.38022C4.37744 3.36176 4.41183 3.34375 4.37529 3.34363ZM3.58154 3.54907C3.68705 3.53529 3.68705 3.56286 3.58154 3.54907V3.54907ZM5.22557 3.80153C4.80691 4.09321 4.39431 4.3963 3.97927 4.69321C3.50891 5.02985 3.04056 5.36773 2.57031 5.7041C2.74712 5.64448 2.92426 5.52806 3.09991 5.44764C3.34177 5.31968 3.59684 5.2186 3.82316 5.06316C4.27065 4.79973 4.7439 4.54875 5.08809 4.14572C5.1632 4.05761 5.23852 3.9158 5.24188 3.82042C5.23104 3.82347 5.23926 3.78227 5.22557 3.80153ZM3.80105 5.11389C3.72574 5.19901 3.69514 5.25983 3.77331 5.1516C3.77193 5.16415 3.83675 5.0844 3.80105 5.11389ZM4.94698 5.15462C4.74856 5.36384 4.4551 5.51474 4.17976 5.52491C4.49808 5.52722 4.78527 5.33827 5.00092 5.11537C4.98677 5.09826 4.95808 5.15522 4.94698 5.15462ZM5.0076 5.22038C4.341 5.70564 3.65139 6.20899 2.98254 6.6925C3.08792 6.72555 3.31733 6.74105 3.42202 6.60615C3.64481 6.45242 3.89526 6.33939 4.11877 6.18359C4.44242 5.97357 4.78896 5.74402 4.97278 5.39104C4.98153 5.34371 5.04658 5.25856 5.0076 5.22038ZM3.73899 5.25118C3.76992 5.38175 4.15661 5.53162 4.11468 5.50293C3.97209 5.45294 3.83065 5.37504 3.73899 5.25118Z" fill="#DC9624"/>
</g>
<defs>
<linearGradient id="paint0_linear_766_6870" x1="0.157227" y1="8.79013" x2="8.74594" y2="0.201416" gradientUnits="userSpaceOnUse">
<stop stop-color="#DB7093"/>
<stop offset="1" stop-color="#F3B661"/>
</linearGradient>
<clipPath id="clip0_766_6870">
<rect width="8.58871" height="8.58871" fill="white" transform="translate(0.157227 0.201416)"/>
</clipPath>
</defs>
</svg>
