<svg width="10" height="9" viewBox="0 0 10 9" fill="none" xmlns="http://www.w3.org/2000/svg">
<g clip-path="url(#clip0_766_6881)">
<path d="M7.32183 0.20166H2.75907C1.64734 0.20166 0.746094 1.1029 0.746094 2.21464V6.77739C0.746094 7.88913 1.64734 8.79037 2.75907 8.79037H7.32183C8.43356 8.79037 9.3348 7.88913 9.3348 6.77739V2.21464C9.3348 1.1029 8.43356 0.20166 7.32183 0.20166Z" fill="#242938"/>
<path fill-rule="evenodd" clip-rule="evenodd" d="M3.53122 3.89211C3.73249 3.08695 4.2358 2.68433 5.04095 2.68433C6.24874 2.68433 6.39971 3.59017 7.00361 3.74114C7.40624 3.84182 7.75847 3.69085 8.06042 3.28822C7.85916 4.09338 7.35585 4.49601 6.55069 4.49601C5.3429 4.49601 5.19193 3.59017 4.58803 3.43919C4.1854 3.33851 3.83317 3.48949 3.53122 3.89211ZM2.02148 5.70379C2.22275 4.89864 2.72606 4.49601 3.53122 4.49601C4.73901 4.49601 4.88998 5.40185 5.49387 5.55282C5.8965 5.6535 6.24874 5.50253 6.55069 5.0999C6.34942 5.90506 5.84611 6.30769 5.04095 6.30769C3.83317 6.30769 3.68219 5.40185 3.0783 5.25087C2.67567 5.15019 2.32343 5.30117 2.02148 5.70379Z" fill="url(#paint0_linear_766_6881)"/>
</g>
<defs>
<linearGradient id="paint0_linear_766_6881" x1="3.64864" y1="2.68433" x2="6.23197" y2="6.42511" gradientUnits="userSpaceOnUse">
<stop stop-color="#32B1C1"/>
<stop offset="1" stop-color="#14C6B7"/>
</linearGradient>
<clipPath id="clip0_766_6881">
<rect width="8.58871" height="8.58871" fill="white" transform="translate(0.746094 0.20166)"/>
</clipPath>
</defs>
</svg>
