<svg width="10" height="9" viewBox="0 0 10 9" fill="none" xmlns="http://www.w3.org/2000/svg">
<g clip-path="url(#clip0_766_6908)">
<path d="M7.47515 0.00805664H2.91239C1.80066 0.00805664 0.899414 0.909298 0.899414 2.02104V6.58379C0.899414 7.69553 1.80066 8.59677 2.91239 8.59677H7.47515C8.58688 8.59677 9.48812 7.69553 9.48812 6.58379V2.02104C9.48812 0.909298 8.58688 0.00805664 7.47515 0.00805664Z" fill="#007ACC"/>
<path d="M2.79863 4.33161L2.7959 4.68334H3.35485H3.91379V6.27158V7.85979H4.30916H4.70451V6.27158V4.68334H5.26344H5.82238V4.33842C5.82238 4.14756 5.81832 3.98806 5.81285 3.98397C5.80876 3.97853 5.12847 3.97578 4.30369 3.97716L2.80272 3.98125L2.79863 4.33161Z" fill="white"/>
<path d="M7.8291 3.97065C8.0472 4.0252 8.21354 4.12199 8.36623 4.28011C8.4453 4.36466 8.56253 4.51872 8.57209 4.55552C8.5748 4.56642 8.20126 4.81728 7.97497 4.95768C7.96678 4.96315 7.93404 4.92769 7.89724 4.87317C7.78682 4.7123 7.67094 4.64275 7.4937 4.6305C7.23332 4.61276 7.06564 4.7491 7.06702 4.97677C7.06702 5.04357 7.07654 5.08309 7.10382 5.13764C7.16106 5.25624 7.26741 5.32713 7.60143 5.47163C8.21626 5.73613 8.47936 5.91063 8.64298 6.15872C8.82566 6.43548 8.86655 6.87719 8.74249 7.20574C8.60617 7.56291 8.26806 7.80558 7.79226 7.88603C7.64504 7.91193 7.29603 7.90784 7.13791 7.87922C6.79298 7.81786 6.46581 7.64746 6.26404 7.42388C6.18496 7.33662 6.0309 7.10895 6.04046 7.09258C6.04452 7.08714 6.07999 7.06534 6.11951 7.04215C6.15769 7.02035 6.30222 6.93718 6.43853 6.8581L6.68529 6.71494L6.73709 6.7913C6.80936 6.90172 6.96747 7.05306 7.06292 7.10348C7.33692 7.24802 7.71322 7.22755 7.89861 7.06124C7.97769 6.98898 8.0104 6.91399 8.0104 6.80358C8.0104 6.70404 7.99812 6.66043 7.94632 6.58544C7.87952 6.49003 7.74321 6.40958 7.35601 6.24189C6.91296 6.05103 6.72209 5.93243 6.5476 5.74429C6.44672 5.63525 6.35127 5.46072 6.31175 5.31485C6.27904 5.19353 6.27085 4.88951 6.29675 4.76682C6.38807 4.33876 6.71119 4.0402 7.17743 3.95156C7.32877 3.92294 7.68047 3.93385 7.8291 3.97065Z" fill="white"/>
</g>
<defs>
<clipPath id="clip0_766_6908">
<rect width="8.58871" height="8.58871" fill="white" transform="translate(0.899414 0.00805664)"/>
</clipPath>
</defs>
</svg>
