<svg width="9" height="9" viewBox="0 0 9 9" fill="none" xmlns="http://www.w3.org/2000/svg">
<g clip-path="url(#clip0_766_6861)">
<path d="M6.73395 0.205078H2.17051C1.0586 0.205078 0.157227 1.10645 0.157227 2.21836V6.7818C0.157227 7.8937 1.0586 8.79508 2.17051 8.79508H6.73395C7.84585 8.79508 8.74723 7.8937 8.74723 6.7818V2.21836C8.74723 1.10645 7.84585 0.205078 6.73395 0.205078Z" fill="#242938"/>
<path d="M7.77702 2.13782L4.62851 7.76787C4.56348 7.88414 4.39648 7.88481 4.33051 7.76915L1.11957 2.13836C1.04769 2.0123 1.15548 1.85961 1.29833 1.88515L4.4502 2.44852C4.4703 2.45212 4.4909 2.45209 4.511 2.44842L7.59696 1.88595C7.73933 1.86001 7.84761 2.01151 7.77702 2.13782Z" fill="url(#paint0_linear_766_6861)"/>
<path d="M5.9516 1.14618L3.62163 1.60273C3.58331 1.61024 3.55496 1.64269 3.55268 1.68164L3.40933 4.10231C3.40596 4.15932 3.45832 4.20358 3.51395 4.19073L4.16267 4.04104C4.22337 4.02705 4.2782 4.0805 4.26575 4.14154L4.07301 5.08529C4.06002 5.14881 4.11968 5.20311 4.18169 5.18428L4.58237 5.06255C4.64448 5.04369 4.70417 5.09815 4.69102 5.16173L4.38473 6.64415C4.36557 6.73689 4.48892 6.78746 4.54036 6.70793L4.57472 6.65485L6.47331 2.86586C6.50512 2.80242 6.45029 2.73008 6.3806 2.74353L5.71289 2.8724C5.65015 2.88449 5.59676 2.82606 5.61444 2.76467L6.05029 1.25386C6.068 1.19236 6.01442 1.13388 5.9516 1.14618Z" fill="url(#paint1_linear_766_6861)"/>
</g>
<defs>
<linearGradient id="paint0_linear_766_6861" x1="1.04118" y1="1.68394" x2="4.95973" y2="7.00564" gradientUnits="userSpaceOnUse">
<stop stop-color="#41D1FF"/>
<stop offset="1" stop-color="#BD34FE"/>
</linearGradient>
<linearGradient id="paint1_linear_766_6861" x1="4.2693" y1="1.27014" x2="4.97815" y2="6.13277" gradientUnits="userSpaceOnUse">
<stop stop-color="#FFEA83"/>
<stop offset="0.0833333" stop-color="#FFDD35"/>
<stop offset="1" stop-color="#FFA800"/>
</linearGradient>
<clipPath id="clip0_766_6861">
<rect width="8.59" height="8.59" fill="white" transform="translate(0.157227 0.205078)"/>
</clipPath>
</defs>
</svg>
