<svg width="9" height="9" viewBox="0 0 9 9" fill="none" xmlns="http://www.w3.org/2000/svg">
<g clip-path="url(#clip0_766_6886)">
<path d="M6.97515 0.20166H2.41239C1.30066 0.20166 0.399414 1.1029 0.399414 2.21464V6.77739C0.399414 7.88913 1.30066 8.79037 2.41239 8.79037H6.97515C8.08688 8.79037 8.98812 7.88913 8.98812 6.77739V2.21464C8.98812 1.1029 8.08688 0.20166 6.97515 0.20166Z" fill="#242938"/>
<path d="M1.53177 3.56358C1.53177 3.56358 1.37293 3.44907 1.56354 3.29619L2.00763 2.89909C2.00763 2.89909 2.1347 2.7654 2.26905 2.88188L6.36709 5.98452V7.47231C6.36709 7.47231 6.36511 7.70595 6.06528 7.68012L1.53177 3.56358Z" fill="#2489CA"/>
<path d="M2.58792 4.52271L1.53164 5.483C1.53164 5.483 1.4231 5.56375 1.53164 5.70805L2.02205 6.15409C2.02205 6.15409 2.13853 6.2792 2.31061 6.13688L3.43042 5.28777L2.58792 4.52271Z" fill="#1070B3"/>
<path d="M4.44161 4.53057L6.3788 3.05136L6.36622 1.57152C6.36622 1.57152 6.28349 1.24855 6.00751 1.41665L3.42969 3.76281L4.44161 4.53057Z" fill="#0877B9"/>
<path d="M6.06471 7.68258C6.17724 7.79772 6.31358 7.76001 6.31358 7.76001L7.82322 7.01612C8.01646 6.8844 7.98932 6.72095 7.98932 6.72095V2.27875C7.98932 2.08351 7.78943 2.016 7.78943 2.016L6.48103 1.38528C6.19512 1.20857 6.00781 1.41705 6.00781 1.41705C6.00781 1.41705 6.2487 1.24365 6.36653 1.57191V7.44562C6.36653 7.48601 6.3579 7.5257 6.34073 7.56147C6.3063 7.63095 6.23152 7.6958 6.05217 7.66866L6.06471 7.68258Z" fill="#3C99D4"/>
</g>
<defs>
<clipPath id="clip0_766_6886">
<rect width="8.58871" height="8.58871" fill="white" transform="translate(0.399414 0.20166)"/>
</clipPath>
</defs>
</svg>
