<svg width="22" height="22" viewBox="0 0 22 22" fill="none" xmlns="http://www.w3.org/2000/svg">
<path fill-rule="evenodd" clip-rule="evenodd" d="M17.6 1.1H4.4C2.57746 1.1 1.1 2.57746 1.1 4.4V17.6C1.1 19.4225 2.57746 20.9 4.4 20.9H17.6C19.4225 20.9 20.9 19.4225 20.9 17.6V4.4C20.9 2.57746 19.4225 1.1 17.6 1.1ZM4.4 0C1.96995 0 0 1.96995 0 4.4V17.6C0 20.0301 1.96995 22 4.4 22H17.6C20.0301 22 22 20.0301 22 17.6V4.4C22 1.96995 20.0301 0 17.6 0H4.4Z" fill="#212121"/>
<path d="M4 11C4 12.8565 4.7375 14.637 6.05025 15.9497C7.36301 17.2625 9.14348 18 11 18C12.8565 18 14.637 17.2625 15.9497 15.9497C17.2625 14.637 18 12.8565 18 11C18 9.14348 17.2625 7.36301 15.9497 6.05025C14.637 4.7375 12.8565 4 11 4C9.14348 4 7.36301 4.7375 6.05025 6.05025C4.7375 7.36301 4 9.14348 4 11Z" stroke="black" stroke-linejoin="round"/>
<path d="M8 11C8 9.14348 8.31607 7.36301 8.87868 6.05025C9.44129 4.7375 10.2044 4 11 4C11.7956 4 12.5587 4.7375 13.1213 6.05025C13.6839 7.36301 14 9.14348 14 11C14 12.8565 13.6839 14.637 13.1213 15.9497C12.5587 17.2625 11.7956 18 11 18C10.2044 18 9.44129 17.2625 8.87868 15.9497C8.31607 14.637 8 12.8565 8 11Z" stroke="black" stroke-linejoin="round"/>
<path d="M4.5 13.3334H17.5M4.5 8.66675H17.5" stroke="black" stroke-linecap="round"/>
</svg>
