<svg width="23" height="22" viewBox="0 0 23 22" fill="none" xmlns="http://www.w3.org/2000/svg">
<path d="M18.2329 8.13809C18.0771 7.55402 17.6196 7.0965 17.0453 6.94075C15.9939 6.65845 11.7984 6.65845 11.7984 6.65845C11.7984 6.65845 7.59305 6.65845 6.55145 6.94075C5.97712 7.0965 5.5196 7.55402 5.36384 8.13809C5.08154 9.18942 5.08154 11.3894 5.08154 11.3894C5.08154 11.3894 5.08154 13.5894 5.36384 14.6408C5.5196 15.2248 5.97712 15.6823 6.55145 15.8381C7.60278 16.1204 11.7984 16.1204 11.7984 16.1204C11.7984 16.1204 16.0037 16.1204 17.0453 15.8381C17.6196 15.6823 18.0771 15.2248 18.2329 14.6408C18.5152 13.5894 18.5152 11.3894 18.5152 11.3894C18.5152 11.3894 18.5152 9.18942 18.2329 8.13809ZM10.4258 13.385V9.39385L13.9399 11.3894L10.4258 13.385Z" fill="white"/>
<path fill-rule="evenodd" clip-rule="evenodd" d="M19.3134 1.10973H3.97178C2.746 1.10973 1.75231 2.10342 1.75231 3.3292V18.6708C1.75231 19.8966 2.746 20.8903 3.97178 20.8903H19.3134C20.5392 20.8903 21.5328 19.8966 21.5328 18.6708V3.3292C21.5328 2.10342 20.5392 1.10973 19.3134 1.10973ZM3.97178 0H19.3134C21.152 0 22.6426 1.49054 22.6426 3.3292V18.6708C22.6426 20.5095 21.152 22 19.3134 22H3.97178C2.13311 22 0.642578 20.5095 0.642578 18.6708V3.3292C0.642578 1.49053 2.13311 0 3.97178 0Z" fill="white"/>
</svg>
