<svg width="19" height="19" viewBox="0 0 19 19" fill="none" xmlns="http://www.w3.org/2000/svg">
<path d="M14.8813 6.80519C14.751 6.31677 14.3684 5.93418 13.8882 5.80394C13.009 5.56787 9.50056 5.56787 9.50056 5.56787C9.50056 5.56787 5.98397 5.56787 5.11297 5.80394C4.63269 5.93418 4.2501 6.31677 4.11986 6.80519C3.88379 7.68434 3.88379 9.52403 3.88379 9.52403C3.88379 9.52403 3.88379 11.3637 4.11986 12.2429C4.2501 12.7313 4.63269 13.1139 5.11297 13.2441C5.99211 13.4802 9.50056 13.4802 9.50056 13.4802C9.50056 13.4802 13.0171 13.4802 13.8882 13.2441C14.3684 13.1139 14.751 12.7313 14.8813 12.2429C15.1173 11.3637 15.1173 9.52403 15.1173 9.52403C15.1173 9.52403 15.1173 7.68434 14.8813 6.80519ZM8.35278 11.1928V7.85528L11.2914 9.52403L8.35278 11.1928Z" fill="#212121"/>
<path fill-rule="evenodd" clip-rule="evenodd" d="M15.7849 0.927988H2.95584C1.93081 0.927988 1.09986 1.75894 1.09986 2.78396V15.613C1.09986 16.638 1.93081 17.469 2.95584 17.469H15.7849C16.8099 17.469 17.6408 16.638 17.6408 15.613V2.78396C17.6408 1.75894 16.8099 0.927988 15.7849 0.927988ZM2.95584 0H15.7849C17.3224 0 18.5688 1.24642 18.5688 2.78396V15.613C18.5688 17.1505 17.3224 18.397 15.7849 18.397H2.95584C1.4183 18.397 0.171875 17.1505 0.171875 15.613V2.78396C0.171875 1.24642 1.4183 0 2.95584 0Z" fill="#212121"/>
</svg>
