<svg width="32" height="32" viewBox="0 0 32 32" fill="none" xmlns="http://www.w3.org/2000/svg">
<rect width="32" height="32" rx="6" fill="#212121"/>
<path d="M7.78 19.31C7.78 20.138 8.374 20.552 9.562 20.552C10.762 20.552 11.362 20.18 11.362 19.436C11.362 19.04 11.158 18.716 10.75 18.464C10.342 18.212 9.844 18.002 9.256 17.834C8.68 17.666 8.098 17.474 7.51 17.258C6.934 17.03 6.442 16.682 6.034 16.214C5.626 15.734 5.422 15.14 5.422 14.432C5.422 11.42 7.36 9.914 11.236 9.914C12.652 9.914 13.72 10.184 14.44 10.724C15.172 11.252 15.538 11.99 15.538 12.938C15.538 13.286 15.49 13.622 15.394 13.946C15.31 14.258 15.22 14.48 15.124 14.612L14.98 14.828H11.794C12.058 14.552 12.19 14.204 12.19 13.784C12.19 13.004 11.68 12.614 10.66 12.614C9.376 12.614 8.734 13.022 8.734 13.838C8.734 14.246 8.938 14.57 9.346 14.81C9.754 15.05 10.246 15.242 10.822 15.386C11.41 15.518 11.998 15.686 12.586 15.89C13.174 16.094 13.672 16.436 14.08 16.916C14.488 17.384 14.692 17.996 14.692 18.752C14.692 20.276 14.236 21.41 13.324 22.154C12.412 22.886 11.008 23.252 9.112 23.252C7.216 23.252 5.92 22.916 5.224 22.244C4.708 21.74 4.45 21.044 4.45 20.156C4.45 19.82 4.486 19.454 4.558 19.058L4.612 18.77H7.852L7.816 18.986C7.792 19.106 7.78 19.214 7.78 19.31ZM19.9919 23.252C17.0999 23.252 15.6539 22.202 15.6539 20.102C15.6539 19.778 15.6899 19.43 15.7619 19.058L15.9959 17.726H19.2359L19.1279 18.32C19.0799 18.62 19.0559 18.926 19.0559 19.238C19.0559 19.55 19.1339 19.808 19.2899 20.012C19.5299 20.312 19.9259 20.462 20.4779 20.462C21.0299 20.462 21.4739 20.312 21.8099 20.012C22.1579 19.712 22.4039 19.16 22.5479 18.356L24.0239 10.022H27.2459L25.7339 18.608C25.4579 20.204 24.8579 21.38 23.9339 22.136C23.0099 22.88 21.6959 23.252 19.9919 23.252Z" fill="white"/>
</svg>
