<svg width="1522" height="1522" viewBox="0 0 1522 1522" fill="none" xmlns="http://www.w3.org/2000/svg">
<g clip-path="url(#clip0_1125_3264)">
<path d="M697.978 329.472C558.146 449.439 437.436 650.96 453.266 841.566C462.716 955.138 547.257 984.932 633.922 919.852C687.528 879.612 735.118 831.86 774.471 777.584C794.929 749.39 815.091 720.788 831.597 690.074C846.652 662.001 878.501 619.234 860.743 589.646C850.94 573.339 831.385 570.297 814.721 577.192C795.88 585.02 786.966 603.721 777.529 620.565C755.143 660.373 739.098 703.294 730.076 748.062C719.617 800 728.311 864.758 775.657 888.427C809.469 905.334 850.475 896.929 882.384 879.791C903.179 868.621 922.8 854.91 939.379 838.076C956.616 820.57 969.636 799.199 980.523 777.301C982.503 773.364 984.381 769.39 986.176 765.353C992.68 750.69 999.198 732.53 993.017 716.642C986.519 699.979 965.073 696.38 951.355 706.017C936.887 716.164 926.277 736.699 918.335 752.079C901.393 784.866 892.799 822.465 898.194 859.283C900.819 877.307 906.694 895.721 919.856 908.291C949.274 936.375 992.18 923.576 1025.42 910.682C1076.5 890.846 1112.29 853.704 1140.65 807.991" stroke="#1E2328" stroke-width="20" stroke-miterlimit="2" stroke-linecap="round" stroke-linejoin="round"/>
</g>
<defs>
<clipPath id="clip0_1125_3264">
<rect width="1080" height="1080" fill="white" transform="matrix(-0.645231 0.763988 0.763988 0.645231 696.85 0)"/>
</clipPath>
</defs>
</svg>
